# xmcd
#
# Track frame offsets: 
#        150
#        23985
#        44928
#        73972
#
# Disc length: 1259 seconds
#
# Revision: 0
# Processed by: cddbd v1.5.2PL0 Copyright (c) Steve Scherf et al.
# Submitted via: ExactAudioCopy v1.0b3
#
DISCID=3d04e904
DTITLE=スネオヘアー - headphone music
DYEAR=2006
DGENRE=Pop
TTITLE0=headphone music
TTITLE1=headphone music (i-dep mix)
TTITLE2=headphone music (AHB DUB)
TTITLE3=headphone music (自宅にて)
EXTD=
EXTT0=
EXTT1=
EXTT2=
EXTT3=
PLAYORDER=
